<svg width="10" height="6" viewBox="0 0 10 6" fill="none" xmlns="http://www.w3.org/2000/svg">
<path d="M9.84016 4.74724L9.5126 5.0365C9.40951 5.12684 9.27235 5.17661 9.12577 5.17661C8.97926 5.17661 8.84194 5.12684 8.73885 5.0365L5.00224 1.75938L1.26131 5.04014C1.15838 5.13048 1.02107 5.18018 0.87456 5.18018C0.728055 5.18018 0.590655 5.13048 0.487646 5.04014L0.160001 4.75266C-0.0533338 4.56571 -0.0533338 4.26118 0.160001 4.07423L4.61402 0.154043C4.71695 0.0637765 4.8541 0.000175953 5.00191 0.000175953H5.00362C5.1502 0.000175953 5.28736 0.063848 5.39029 0.154043L9.84016 4.06361C9.94325 4.15387 9.99984 4.27779 10 4.40628C10 4.53483 9.94325 4.65704 9.84016 4.74724Z" fill="#AAAAAA"/>
</svg>
