<svg width="25" height="25" viewBox="0 0 25 25" fill="none" xmlns="http://www.w3.org/2000/svg">
<path d="M12.5 0C5.58824 0 0 5.58824 0 12.5C0 19.4118 5.58824 25 12.5 25C19.4118 25 25 19.4118 25 12.5C25 5.61765 19.4118 0 12.5 0ZM11.8529 5.14706H13.1176C13.2647 5.14706 13.3824 5.26471 13.3824 5.41176L13.2059 15.5588C13.2059 15.7059 13.0882 15.8235 12.9412 15.8235H12.0588C11.9118 15.8235 11.7941 15.7059 11.7941 15.5588L11.5882 5.41176C11.5882 5.26471 11.7059 5.14706 11.8529 5.14706ZM13.2941 19.8824C13.0588 20.1176 12.7941 20.2059 12.5 20.2059C12.2059 20.2059 11.9412 20.1176 11.7353 19.9118C11.5 19.7059 11.3529 19.3824 11.3529 19.0588C11.3529 18.7647 11.4706 18.5 11.6765 18.2647C11.8824 18.0294 12.2059 17.9118 12.5294 17.9118C12.8824 17.9118 13.1765 18.0588 13.4118 18.3235C13.5588 18.5 13.6471 18.7059 13.6765 18.9412C13.6765 19.3235 13.5588 19.6176 13.2941 19.8824Z" fill="#104C81"/>
</svg>
