<svg width="30" height="30" viewBox="0 0 30 30" fill="none" xmlns="http://www.w3.org/2000/svg">
<circle cx="15" cy="15" r="15" fill="white"/>
<path d="M21.8163 21.9347L18.2102 18.3286C19.1041 17.2388 19.6429 15.8429 19.6429 14.3214C19.6429 10.8316 16.8112 8 13.3214 8C9.82857 8 7 10.8316 7 14.3214C7 17.8112 9.82857 20.6429 13.3214 20.6429C14.8429 20.6429 16.2357 20.1071 17.3255 19.2133L20.9316 22.8163C21.1765 23.0612 21.5714 23.0612 21.8163 22.8163C22.0612 22.5745 22.0612 22.1765 21.8163 21.9347ZM13.3214 19.3847C10.5265 19.3847 8.2551 17.1133 8.2551 14.3214C8.2551 11.5296 10.5265 9.2551 13.3214 9.2551C16.1133 9.2551 18.3878 11.5296 18.3878 14.3214C18.3878 17.1133 16.1133 19.3847 13.3214 19.3847Z" fill="#0F4C82"/>
</svg>
